<svg width="126" height="8" viewBox="0 0 126 8" fill="none" xmlns="http://www.w3.org/2000/svg">
<path d="M125.354 4.35354C125.549 4.15828 125.549 3.8417 125.354 3.64644L122.172 0.464455C121.976 0.269193 121.66 0.269193 121.464 0.464455C121.269 0.659718 121.269 0.9763 121.464 1.17156L124.293 3.99999L121.464 6.82842C121.269 7.02368 121.269 7.34026 121.464 7.53552C121.66 7.73079 121.976 7.73079 122.172 7.53552L125.354 4.35354ZM0 4L4.37114e-08 4.5L3.90625 4.5L3.90625 4L3.90625 3.5L-4.37114e-08 3.5L0 4ZM11.7188 4L11.7188 4.5L19.5313 4.5L19.5312 4L19.5312 3.5L11.7187 3.5L11.7188 4ZM27.3438 4L27.3438 4.5L35.1563 4.5L35.1562 4L35.1562 3.5L27.3437 3.5L27.3438 4ZM42.9688 4L42.9688 4.5L50.7813 4.5L50.7812 4L50.7812 3.5L42.9687 3.5L42.9688 4ZM58.5938 3.99999L58.5938 4.49999L66.4063 4.49999L66.4062 3.99999L66.4062 3.49999L58.5937 3.49999L58.5938 3.99999ZM74.2188 3.99999L74.2188 4.49999L82.0313 4.49999L82.0312 3.99999L82.0312 3.49999L74.2187 3.49999L74.2188 3.99999ZM89.8438 3.99999L89.8438 4.49999L97.6563 4.49999L97.6562 3.99999L97.6562 3.49999L89.8437 3.49999L89.8438 3.99999ZM105.469 3.99999L105.469 4.49999L113.281 4.49999L113.281 3.99999L113.281 3.49999L105.469 3.49999L105.469 3.99999ZM121.094 3.99999L121.094 4.49999L125 4.49999L125 3.99999L125 3.49999L121.094 3.49999L121.094 3.99999ZM125.354 4.35354C125.549 4.15828 125.549 3.8417 125.354 3.64644L122.172 0.464455C121.976 0.269193 121.66 0.269193 121.464 0.464455C121.269 0.659718 121.269 0.9763 121.464 1.17156L124.293 3.99999L121.464 6.82842C121.269 7.02368 121.269 7.34026 121.464 7.53552C121.66 7.73079 121.976 7.73079 122.172 7.53552L125.354 4.35354ZM0 4L4.37114e-08 4.5L3.90625 4.5L3.90625 4L3.90625 3.5L-4.37114e-08 3.5L0 4ZM11.7188 4L11.7188 4.5L19.5313 4.5L19.5312 4L19.5312 3.5L11.7187 3.5L11.7188 4ZM27.3438 4L27.3438 4.5L35.1563 4.5L35.1562 4L35.1562 3.5L27.3437 3.5L27.3438 4ZM42.9688 4L42.9688 4.5L50.7813 4.5L50.7812 4L50.7812 3.5L42.9687 3.5L42.9688 4ZM58.5938 3.99999L58.5938 4.49999L66.4063 4.49999L66.4062 3.99999L66.4062 3.49999L58.5937 3.49999L58.5938 3.99999ZM74.2188 3.99999L74.2188 4.49999L82.0313 4.49999L82.0312 3.99999L82.0312 3.49999L74.2187 3.49999L74.2188 3.99999ZM89.8438 3.99999L89.8438 4.49999L97.6563 4.49999L97.6562 3.99999L97.6562 3.49999L89.8437 3.49999L89.8438 3.99999ZM105.469 3.99999L105.469 4.49999L113.281 4.49999L113.281 3.99999L113.281 3.49999L105.469 3.49999L105.469 3.99999ZM121.094 3.99999L121.094 4.49999L125 4.49999L125 3.99999L125 3.49999L121.094 3.49999L121.094 3.99999Z" fill="url(#paint0_linear_40_782)"/>
<defs>
<linearGradient id="paint0_linear_40_782" x1="4.37114e-08" y1="4.5" x2="125" y2="4.49999" gradientUnits="userSpaceOnUse">
<stop stop-color="#F4F2F0"/>
<stop offset="1" stop-color="#ADB9CF"/>
</linearGradient>
</defs>
</svg>
