<svg width="22" height="22" viewBox="0 0 22 22" fill="none" xmlns="http://www.w3.org/2000/svg">
<g clip-path="url(#clip0_21_540)">
<path d="M7.7915 11.4583L9.62484 13.2917L14.2082 8.70834" stroke="#282A36" stroke-width="2" stroke-linecap="round" stroke-linejoin="round"/>
<path d="M20.1668 11C20.1668 15.3212 20.1668 17.4818 18.8244 18.8242C17.482 20.1667 15.3213 20.1667 11.0002 20.1667C6.67895 20.1667 4.51835 20.1667 3.17593 18.8242C1.8335 17.4818 1.8335 15.3212 1.8335 11C1.8335 6.6788 1.8335 4.5182 3.17593 3.17577C4.51835 1.83334 6.67895 1.83334 11.0002 1.83334C15.3213 1.83334 17.482 1.83334 18.8244 3.17577C19.717 4.06837 20.0161 5.32268 20.1163 7.33334" stroke="#282A36" stroke-width="2" stroke-linecap="round"/>
</g>
<defs>
<clipPath id="clip0_21_540">
<rect width="22" height="22" fill="white"/>
</clipPath>
</defs>
</svg>
