<svg width="90" height="90" viewBox="0 0 90 90" fill="none" xmlns="http://www.w3.org/2000/svg">
<g clip-path="url(#clip0_28_608)">
<path d="M4.71094 4.71088L0 9.40424V49.2714V89.1386L0.439453 89.5605L0.861328 89.9999H8.75391C18.4746 89.9999 17.5781 90.2988 17.5781 86.9941V84.7265H45H72.4219V86.9941C72.4219 90.2988 71.5254 89.9999 81.2461 89.9999H89.1387L89.5605 89.5605L90 89.1386V49.2714V9.40424L85.2891 4.71088L80.5957 -5.34058e-05H75.7266C71.2441 -5.34058e-05 70.8398 0.0175247 70.4707 0.333931C69.9082 0.790962 69.9082 1.84565 70.4707 2.30268C70.8398 2.60151 71.2441 2.63667 75.2168 2.63667H79.541L83.4609 6.55659L87.3633 10.4589V48.9199V87.3632H81.2109H75.0586V85.3417C75.0586 83.2324 74.8477 82.4238 74.2676 82.1953C73.8809 82.0546 16.1191 82.0546 15.7324 82.1953C15.1523 82.4238 14.9414 83.2324 14.9414 85.3417V87.3632H8.78906H2.63672V48.9023V10.4589L6.55664 6.53901L10.459 2.63667H38.4258H66.3926L66.8672 2.26752C67.5 1.77534 67.5 0.861275 66.8672 0.369087L66.3926 -5.34058e-05H37.8984H9.4043L4.71094 4.71088Z" fill="#282A36"/>
<path d="M18.6328 5.11523C18.2813 5.30859 17.8067 5.76562 17.5782 6.09961C17.1563 6.73242 17.1387 6.82031 17.086 10.6172C17.0157 14.8184 17.1035 15.4336 17.877 16.3652C18.5801 17.1914 19.2657 17.4023 21.252 17.4023C22.9395 17.4023 23.0098 17.3848 23.3614 16.9453C23.8184 16.3652 23.836 15.8027 23.3965 15.2754C23.0977 14.9062 22.8692 14.8359 21.4102 14.7656L19.7754 14.6777V11.0742V7.4707L31.2539 7.41797L42.7149 7.38281L42.6797 11.0215L42.627 14.6777L34.8399 14.7656L27.0352 14.8535L26.7012 15.2754C26.2442 15.8379 26.2793 16.4531 26.8067 16.9629L27.2285 17.4023H35.1914C43.1192 17.4023 43.1543 17.4023 43.8575 16.998C44.2442 16.7871 44.7364 16.2949 44.9473 15.9082C45.3516 15.2227 45.3516 15.0996 45.3164 10.8809L45.2637 6.55664L44.7715 5.92383C43.8223 4.67578 44.5606 4.74609 31.2539 4.74609C19.4766 4.74609 19.2305 4.76367 18.6328 5.11523Z" fill="#BC6434"/>
<path d="M64.5998 5.0625C60.8908 6.3457 59.0978 10.582 60.715 14.1855C61.3302 15.5215 62.6838 16.875 64.1076 17.543C64.9865 17.9473 65.3556 18.0176 66.797 18.0176C68.3263 18.0176 68.5724 17.9648 69.6271 17.4551C74.2326 15.1875 74.8127 8.91211 70.6818 5.95898C70.1545 5.57226 69.3283 5.15039 68.8361 5.00976C67.6584 4.6582 65.6896 4.67578 64.5998 5.0625ZM68.3439 7.66406C71.1213 8.80664 71.7013 12.5156 69.4162 14.4668C67.3947 16.207 64.1779 15.5039 63.0881 13.1133C62.4201 11.6543 62.7892 9.68555 63.9142 8.54297C65.0041 7.45312 66.9201 7.06641 68.3439 7.66406Z" fill="#BC6434"/>
<path d="M49.7813 8.49026C49.1485 9.15823 49.2891 10.0371 50.1153 10.459C50.7129 10.7754 54.0703 10.8281 54.7207 10.5293C55.1426 10.336 55.5469 9.70315 55.5469 9.24612C55.5469 9.12307 55.3887 8.80666 55.1778 8.54299C54.8262 8.08596 54.791 8.08596 52.4883 8.08596C50.2735 8.08596 50.1328 8.10354 49.7813 8.49026Z" fill="#BC6434"/>
<path d="M23.2558 9.84375C22.6933 10.0723 22.2714 10.793 22.412 11.2852C22.6757 12.1289 22.9921 12.3047 24.3456 12.3047C25.4355 12.3047 25.6464 12.252 25.9804 11.9004C26.6132 11.2324 26.4726 10.3535 25.6464 9.93164C25.1015 9.65039 23.871 9.59766 23.2558 9.84375Z" fill="#BC6434"/>
<path d="M28.5294 9.84375C27.7208 10.1777 27.5274 11.3027 28.1778 11.918C28.5821 12.3047 28.6876 12.3047 33.9786 12.3047C39.1466 12.3047 39.3927 12.2871 39.7267 11.9531C40.1661 11.5137 40.1837 10.7051 39.7442 10.1777L39.4103 9.75586L34.1544 9.7207C31.2716 9.70312 28.7403 9.75586 28.5294 9.84375Z" fill="#BC6434"/>
<path d="M49.834 12.5684C49.5879 12.7969 49.3945 13.2012 49.3945 13.4473C49.3945 13.6934 49.5879 14.0977 49.834 14.3262C50.2383 14.748 50.3613 14.7656 52.4707 14.7656C54.5801 14.7656 54.7031 14.748 55.1074 14.3262C55.3535 14.0977 55.5469 13.6934 55.5469 13.4473C55.5469 13.2012 55.3535 12.7969 55.1074 12.5684C54.7031 12.1465 54.5801 12.1289 52.4707 12.1289C50.3613 12.1289 50.2383 12.1465 49.834 12.5684Z" fill="#BC6434"/>
<path d="M10.3711 21.5332L8.52539 23.3789V42.873C8.52539 61.7871 8.54297 62.3848 8.85938 62.7363C9.24609 63.1758 10.1426 63.2285 10.6523 62.8594C10.9688 62.6133 10.9863 62.209 11.0742 49.3594L11.1621 36.123L15.8027 36.0703L20.4434 36.0352L19.3008 37.1602C17.543 38.9004 16.9277 40.5703 17.3848 42.293C17.666 43.3301 18.6504 44.543 19.6172 45C20.6191 45.4922 21.7441 45.4219 23.8184 44.7539C25.7695 44.1211 26.2441 44.1562 27.5098 45C29.8125 46.5293 31.9043 46.8457 33.75 45.9316L34.752 45.4395L35.1914 45.9141C35.5957 46.3711 35.7539 46.4062 36.8965 46.4062H38.1445V48.6035C38.1445 50.7129 38.1621 50.8359 38.584 51.2402C39.1289 51.8027 39.7969 51.8027 40.3418 51.2402C40.7637 50.8359 40.7813 50.7129 40.7813 48.6035V46.4062H41.9766C43.6816 46.4062 43.8047 46.2832 44.666 43.5938L45.3691 41.3086H46.582C47.9883 41.3086 48.5684 41.0977 48.8496 40.4824C48.9551 40.2539 49.043 39.1465 49.043 38.0391V36.0352L63.9492 36.0703L78.8379 36.123L78.8906 54.2285L78.9258 72.3164L77.8359 73.4238L76.7461 74.5312H74.4961H72.2461V66.375C72.2461 61.1543 72.1758 58.0254 72.0703 57.7266C71.7012 56.7598 70.875 56.5137 70.0664 57.1465L69.6094 57.498V66.0234V74.5312H65.9356H62.2617L62.1914 72.8965C62.1563 71.543 62.0684 71.1914 61.7344 70.6992C60.9785 69.6445 60.2578 69.4336 57.5684 69.4336H55.1953V67.1836V64.916L53.8418 62.9648C53.0859 61.8926 52.3125 60.9434 52.1191 60.8379C51.6797 60.6094 42.6621 58.5352 42.1172 58.5352C41.6953 58.5352 35.4375 63.8613 35.0332 64.582C34.8926 64.8105 34.8223 65.7598 34.8047 67.1836V69.4336H32.4316C29.7422 69.4336 29.0215 69.6445 28.2656 70.6992C27.9316 71.1914 27.8438 71.543 27.8086 72.8965L27.7383 74.5312H24.0645H20.3906V66.0234V57.498L19.9336 57.1465C19.125 56.5137 18.2813 56.7422 17.9473 57.6738C17.8242 58.0605 17.7539 60.8906 17.7539 66.375V74.5312H15.5039H13.2539L12.1641 73.4238L11.0742 72.3164V69.4863C11.0742 67.0078 11.0391 66.6035 10.7578 66.252C10.3184 65.7246 9.43945 65.7246 8.91211 66.252C8.54297 66.6211 8.52539 66.7617 8.52539 70.0664V73.4941L10.3887 75.3223L12.252 77.168H45H77.7481L79.6113 75.3223L81.4746 73.4941V48.4453V23.3789L79.6289 21.5332L77.7832 19.6875H45H12.2168L10.3711 21.5332ZM38.1445 25.3125V28.3008H34.4531C30.7441 28.3008 30.7441 28.3008 30.3223 28.7402C29.9004 29.1445 29.8828 29.2676 29.8828 31.2891V33.3984H20.4785H11.0742V28.9688V24.5391L12.1641 23.4316L13.2539 22.3242H25.6992H38.1445V25.3125ZM77.8184 23.4141L78.9258 24.5039V28.9512V33.3984H64.002H49.0781L49.0078 31.1836C48.9375 28.1426 49.2012 28.3008 44.4551 28.3008H40.7813V25.3125V22.3242H58.7461H76.7109L77.8184 23.4141ZM46.4063 34.8047V38.6719H39.4629H32.5195V34.8047V30.9375H39.4629H46.4063V34.8047ZM29.8828 38.0566C29.8828 39.1641 29.9707 40.2539 30.0762 40.4824C30.3574 41.0977 30.9375 41.3086 32.3438 41.3086H33.5566L33.6797 41.959C33.7852 42.5391 33.75 42.6445 33.1699 43.1895C32.0801 44.1738 30.6738 43.9805 28.5645 42.5391C27.0352 41.502 25.3301 41.4141 22.8691 42.2578C21.2695 42.8203 20.8652 42.8203 20.3906 42.3281C19.5996 41.4668 19.7227 40.6055 20.7773 39.4453C21.6914 38.4609 22.7637 37.6699 24.4336 36.7559L25.752 36.0352H27.8262H29.8828V38.0566ZM42.5391 41.4492C42.5391 41.5195 42.3809 42.082 42.1699 42.6797L41.8008 43.7695H39.4629H37.125L36.7559 42.6797C36.5449 42.082 36.3867 41.5195 36.3867 41.4492C36.3867 41.3789 37.7754 41.3086 39.4629 41.3086C41.1504 41.3086 42.5391 41.3789 42.5391 41.4492ZM46.8633 62.2441C48.9727 62.7363 50.7129 63.1406 50.7305 63.1582C50.7481 63.1758 51.1523 63.7559 51.6621 64.4414L52.5586 65.707V67.5703V69.4336H45H37.4414V67.6055V65.7773L39.9551 63.5801C41.3262 62.3672 42.5742 61.3652 42.7324 61.3652C42.8731 61.3477 44.7363 61.752 46.8633 62.2441ZM59.5898 73.3008V74.5312H45H30.4102V73.3008V72.0703H45H59.5898V73.3008Z" fill="#282A36"/>
</g>
<defs>
<clipPath id="clip0_28_608">
<rect width="90" height="90" fill="white"/>
</clipPath>
</defs>
</svg>
