<svg width="90" height="90" viewBox="0 0 90 90" fill="none" xmlns="http://www.w3.org/2000/svg">
<g clip-path="url(#clip0_28_624)">
<path d="M40.6934 0.175713C30.1816 1.26556 20.584 5.81829 13.1836 13.2187C6.06445 20.3554 1.74023 29.162 0.333984 39.3749C0.0175781 41.5722 0.0175781 48.4277 0.333984 50.6249C1.74023 60.8378 6.08203 69.6796 13.2012 76.7988C20.3379 83.9179 29.0391 88.1894 39.4629 89.6835C41.8711 90.0351 48.6562 89.9648 51.1523 89.5956C56.9531 88.6992 62.1387 86.9765 66.6914 84.4453C78.4863 77.8535 86.8184 66.3749 89.1914 53.3671C89.6836 50.7656 90 47.6894 90 45.6327C90 44.2968 89.9824 44.2617 89.6133 44.3671C89.3848 44.4199 88.7871 44.4726 88.2949 44.4726H87.3633V45.5624C87.3633 48.7441 86.5898 53.789 85.6055 57.0937C81.5801 70.5234 70.9102 81.3339 57.6387 85.4296C50.9414 87.5038 43.7695 87.8906 36.8789 86.5546C19.7051 83.2324 6.1875 69.416 3.26953 52.207C2.54883 47.9706 2.47852 42.9081 3.07617 38.8476C5.11523 25.1015 13.8516 13.1308 26.2793 7.03118C30.2344 5.09759 33.6973 3.97259 37.8281 3.26946C49.6758 1.26556 61.6113 4.25384 71.0156 11.5839L72.5098 12.7441L71.3672 12.832C70.084 12.9374 70.207 12.7441 70.2773 14.6777L70.3125 15.4687H73.7402H77.168V11.9531V8.43743H75.8496H74.5312V9.6679C74.5312 10.3359 74.4961 10.8984 74.4434 10.8984C74.4082 10.8984 73.7051 10.371 72.9141 9.72063C66.9023 4.86907 59.3086 1.59954 51.293 0.439384C49.0781 0.1054 42.8555 -0.0352249 40.6934 0.175713Z" fill="#282A36"/>
<path d="M42.3633 7.73437C35.2441 8.20898 28.4238 10.7578 22.5352 15.1523C20.3555 16.7695 16.7695 20.3555 15.1523 22.5351C11.2852 27.7031 8.94727 33.3809 7.99805 39.8144C7.61133 42.3984 7.61133 47.6016 7.99805 50.1855C9.80859 62.4551 17.1914 72.7559 28.1074 78.293C33.5918 81.0703 38.707 82.2832 44.9121 82.3008C51.1348 82.3184 56.25 81.123 61.7344 78.3809C72.6504 72.9492 80.1914 62.4726 82.0019 50.1855C82.3887 47.6016 82.3887 42.3984 82.0019 39.8144C80.8242 31.8516 77.3965 24.8379 71.8945 19.1074C64.2305 11.1094 53.5605 7.01366 42.3633 7.73437ZM43.5937 12.041V13.7109H45H46.4062V12.0059V10.3184L48.0762 10.4238C51.5566 10.6523 56.1445 11.8652 59.5547 13.4648L61.207 14.2383L60.5391 15.416C60.1875 16.084 59.8008 16.7519 59.6953 16.9101C59.4668 17.2793 59.5547 17.3672 60.7676 18.0703C61.8047 18.6855 61.6641 18.7559 62.7363 16.9101C63.1406 16.2246 63.5273 15.6445 63.5976 15.6445C63.668 15.6445 64.5996 16.2949 65.6543 17.0859C68.0273 18.8613 71.0508 21.8672 72.7031 24.082C74.6191 26.6309 74.6016 26.3672 72.8965 27.3516C72.1055 27.8086 71.4375 28.1953 71.4023 28.2305C71.2969 28.3008 72.6152 30.4101 72.7734 30.4101C72.8437 30.4101 73.5293 30.0586 74.25 29.6191C74.9883 29.1797 75.6387 28.8281 75.6738 28.8281C75.8144 28.8281 76.6582 30.6035 77.291 32.2383C78.5742 35.543 79.3828 38.9707 79.5762 41.959L79.6816 43.5762L77.9414 43.6289L76.2012 43.6816L76.1484 44.9473L76.0957 46.2305H77.8887H79.6816L79.5762 47.9355C79.3476 51.7324 77.9414 56.8476 76.2187 60.2578L75.7617 61.1719L75.2344 60.9082C74.9531 60.7676 74.2676 60.3633 73.7051 60.0293L72.7031 59.4316L72.0527 60.5215C71.7012 61.1191 71.4551 61.6641 71.4902 61.7344C71.5254 61.7871 72.1758 62.209 72.9492 62.666C74.6016 63.6152 74.6191 63.3516 72.7031 65.918C71.0508 68.1504 68.0273 71.1387 65.6543 72.9141C64.5996 73.7051 63.668 74.3555 63.5976 74.3555C63.5449 74.3555 63.1055 73.7051 62.6484 72.9141C62.1914 72.1055 61.7871 71.4199 61.7695 71.4023C61.7519 71.3672 61.207 71.6484 60.5918 72.0176L59.4492 72.7031L60.3105 74.1621C60.7852 74.9531 61.1719 75.6562 61.1719 75.709C61.1719 75.8848 57.7969 77.3437 55.9863 77.9414C53.5781 78.75 50.2559 79.4355 48.0762 79.5762L46.4238 79.6816L46.3711 77.9414L46.3184 76.2012H45H43.6816L43.6289 77.9414L43.5762 79.6816L41.9238 79.5762C39.7793 79.4355 36.4219 78.75 34.1895 77.9941C32.2734 77.3437 29.0566 75.9902 28.916 75.7617C28.8281 75.6211 29.2324 74.8652 30.252 73.1953L30.5684 72.668L29.4258 72C28.793 71.6309 28.248 71.3672 28.2305 71.4023C28.2129 71.4375 27.8086 72.1055 27.3516 72.8965C26.3672 74.6016 26.6309 74.6191 24.082 72.7031C21.9375 71.1211 18.8789 68.0625 17.2969 65.918C15.3984 63.3691 15.416 63.5976 16.9102 62.7363C18.7734 61.6641 18.6855 61.8398 17.9648 60.5566C17.3672 59.5195 17.2793 59.4492 16.9629 59.6601C16.7695 59.7832 16.084 60.1875 15.416 60.5391L14.2383 61.207L13.4648 59.5547C11.8652 56.1445 10.6348 51.4687 10.4238 47.9707L10.3184 46.2305H12.1113H13.9043L13.8516 44.9473L13.7988 43.6816L12.0586 43.6289L10.3184 43.5762L10.4238 41.9238C10.5645 39.7441 11.2676 36.3164 12.0586 33.9785C12.6738 32.1504 14.1152 28.8281 14.3086 28.8281C14.3613 28.8281 15.0117 29.1797 15.75 29.6191C16.4707 30.0586 17.1562 30.4101 17.2266 30.4101C17.3848 30.4101 18.7031 28.3008 18.5977 28.2129C18.5625 28.1953 17.8945 27.791 17.1035 27.334C16.2949 26.8945 15.6445 26.4551 15.6445 26.4023C15.6445 26.332 16.2949 25.4004 17.0859 24.3457C18.8789 21.9551 21.8672 18.9316 24.082 17.2793C26.6309 15.3984 26.4023 15.416 27.2637 16.9101C28.3184 18.7559 28.1777 18.6855 29.3027 18.0527C29.8301 17.7363 30.3047 17.4023 30.3574 17.2969C30.3926 17.1914 30.0762 16.4883 29.6367 15.7324C29.1973 14.9766 28.8809 14.291 28.916 14.2207C28.9687 14.1504 29.7773 13.7637 30.709 13.3418C34.6992 11.6016 39.1465 10.4766 42.5039 10.4062L43.5937 10.3711V12.041Z" fill="#282A36"/>
<path d="M23.5018 35.5078C21.8319 35.9297 20.1444 37.4238 19.6346 38.9355C19.3358 39.8145 19.2831 39.7617 20.6542 39.9902C21.0409 40.043 21.4803 40.1309 21.6385 40.1836C21.8319 40.2363 21.9901 40.0957 22.1307 39.7441C22.4295 39.0586 23.1678 38.4082 23.9413 38.1621C25.6288 37.6172 27.4217 38.9355 27.4217 40.7285C27.4217 41.9238 26.5252 43.3828 23.2381 47.5137L20.0389 51.5391V52.752V53.9648H24.785H29.5311V52.6465V51.3281H26.6307C25.0311 51.3281 23.7303 51.2754 23.7303 51.2227C23.7303 51.1523 24.7499 49.834 25.9979 48.2695C28.4413 45.2109 29.0917 44.209 29.6717 42.6621C30.9549 39.2695 28.7401 35.7539 25.1366 35.4375C24.6092 35.3848 23.8709 35.4199 23.5018 35.5078Z" fill="#BC6434"/>
<path d="M38.1797 35.543C37.9687 35.8066 30.0586 49.5527 30.0586 49.6758C30.0586 49.7109 32.2031 49.7461 34.8047 49.7461H39.5508V51.7676V53.7891H40.8691H42.1875V51.7852V49.7637L42.7676 49.7109L43.3301 49.6582L43.3828 48.3926L43.4355 47.127L42.8555 47.0742L42.2754 47.0215L42.2227 41.168L42.1875 35.332H40.2715C38.9531 35.332 38.3027 35.4023 38.1797 35.543ZM39.5508 42.8027V47.1094H37.0723C35.5781 47.1094 34.6289 47.0391 34.6641 46.9336C34.7344 46.7051 39.4453 38.4961 39.5156 38.4961C39.5332 38.4961 39.5508 40.4297 39.5508 42.8027Z" fill="#BC6434"/>
<path d="M59.8008 36.7734L59.8535 38.0566L63.6855 38.1094C65.7949 38.1269 67.5 38.2148 67.4648 38.3027C67.4297 38.373 65.9355 41.6074 64.125 45.4746C62.2969 49.3594 60.8203 52.5586 60.8203 52.6289C60.8203 52.8222 62.9824 53.8066 63.123 53.666C63.1934 53.5957 64.916 49.957 66.9551 45.6152C70.541 37.9687 70.6641 37.6699 70.6641 36.5976V35.5078H65.2148H59.748L59.8008 36.7734Z" fill="#BC6434"/>
<path d="M53.7189 35.8418C53.5255 36.1231 47.0743 52.4883 47.0392 52.6992C47.0216 52.998 49.1837 53.8945 49.3771 53.6836C49.5528 53.4727 56.0743 37.0371 56.0743 36.791C56.0743 36.6856 55.9689 36.5625 55.8634 36.5098C54.1583 35.8242 53.7892 35.7188 53.7189 35.8418Z" fill="#BC6434"/>
<path d="M38.3203 59.1504V60.4688H39.6387H40.957V59.1504V57.832H39.6387H38.3203V59.1504Z" fill="#BC6434"/>
<path d="M43.5938 59.1504V60.4688H44.9121H46.2305V59.1504V57.832H44.9121H43.5938V59.1504Z" fill="#BC6434"/>
<path d="M48.8672 59.1504V60.4688H50.1855H51.5039V59.1504V57.832H50.1855H48.8672V59.1504Z" fill="#BC6434"/>
</g>
<defs>
<clipPath id="clip0_28_624">
<rect width="90" height="90" fill="white"/>
</clipPath>
</defs>
</svg>
