<svg width="90" height="90" viewBox="0 0 90 90" fill="none" xmlns="http://www.w3.org/2000/svg">
<g clip-path="url(#clip0_28_593)">
<path d="M1.125 0.175781C0.914062 0.246094 0.580078 0.544922 0.369141 0.808594C0 1.26562 0 1.38867 0 8.20898C0 14.3789 0.0351562 15.2051 0.298828 15.6445C0.966797 16.8047 2.54883 16.8047 3.2168 15.6445C3.48047 15.2051 3.51562 14.4492 3.51562 9.33398V3.51562H9.33398C14.4492 3.51562 15.2051 3.48047 15.6445 3.2168C16.8047 2.54883 16.8047 0.966797 15.6445 0.298828C15.2051 0.0351562 14.3965 0 8.31445 0.0175781C4.57031 0.0175781 1.31836 0.0878906 1.125 0.175781Z" fill="#BC6434"/>
<path d="M44.3673 0.175789C44.1564 0.246101 43.8224 0.54493 43.6114 0.808601C43.2599 1.24805 43.2423 1.45899 43.2423 5.18555V9.07032L28.4591 17.5957C17.2443 24.0469 13.588 26.2266 13.3419 26.6309C13.0255 27.1231 13.0079 27.4922 13.0431 33.082L13.0958 39.0234L13.5528 39.4629C13.7989 39.709 14.2736 39.9551 14.6251 40.0078C15.1525 40.0957 15.3458 40.0254 15.838 39.5859L16.4357 39.0586L16.5236 34.8399L16.6114 30.6387L21.2521 33.3281C23.8009 34.8047 25.963 36.0879 26.0509 36.1758C26.1388 36.2637 26.0333 36.7207 25.7872 37.2832C24.9083 39.2871 24.2579 42.6445 24.2579 45.1758C24.2579 47.8125 25.0841 51.3281 26.297 53.877C28.2482 58.0078 31.9923 61.752 36.1232 63.7031C37.8282 64.5293 40.0782 65.1973 41.8009 65.4434L43.2423 65.6367V71.2441V76.834L42.8556 76.6231C41.7833 76.0606 18.7032 62.7012 18.5626 62.5781C18.4747 62.4902 18.7911 62.1914 19.2657 61.9102C19.7403 61.6289 20.4259 61.207 20.7775 60.9785C21.9903 60.2402 22.131 58.6758 21.0411 57.9902C20.2677 57.5156 19.6173 57.6387 17.965 58.5879L16.6114 59.3789L16.5236 54.8965L16.4357 50.4141L15.838 49.8867C15.3458 49.4473 15.1525 49.377 14.6251 49.4649C14.2736 49.5176 13.7989 49.7637 13.5528 50.0098L13.0958 50.4492L13.0431 55.9688L12.9904 61.4883L8.9298 63.8262C4.48254 66.4102 4.23645 66.6387 4.46496 67.9219C4.60559 68.6426 5.37902 69.2578 6.15246 69.2578C6.39855 69.2578 8.38488 68.2207 10.6876 66.8848L14.7833 64.4942L29.2677 72.8613C37.213 77.4492 44.0157 81.334 44.3673 81.4746C44.965 81.7207 45.0704 81.7207 45.756 81.4219C46.1603 81.2461 52.8927 77.3965 60.715 72.8789C68.5372 68.3613 75.0411 64.6172 75.1642 64.5645C75.3048 64.5117 77.379 65.584 79.7872 66.9551C84.7267 69.75 85.2013 69.9785 85.7989 69.8379C86.8888 69.5742 87.4513 68.3438 86.9415 67.3594C86.713 66.9199 85.6935 66.2695 81.8263 64.0723L76.9923 61.3301V56.5488C76.9923 51.2402 76.9571 51.082 75.8849 50.5723C75.2521 50.2559 75.2169 50.2559 74.5841 50.5723C73.547 51.082 73.4767 51.3281 73.4767 55.4942C73.4767 57.5508 73.4415 59.2383 73.3888 59.2383C73.336 59.2383 72.4044 58.7285 71.297 58.1133C69.0294 56.8125 68.5724 56.6543 67.8868 56.9356C67.3419 57.1641 66.797 57.9551 66.797 58.5352C66.797 59.3965 67.2892 59.8711 69.4161 61.0664C70.5939 61.7344 71.5782 62.3145 71.6134 62.3848C71.6661 62.4727 54.6153 72.4043 47.795 76.2539L46.7579 76.8516V71.2441V65.6367L48.2169 65.4434C54.6857 64.5469 60.838 59.959 63.7032 53.877C64.9161 51.3281 65.7423 47.8125 65.7423 45.1758C65.7423 42.6094 65.1446 39.5156 64.213 37.2832C63.9493 36.6504 63.8087 36.1231 63.9142 36.0879C64.0021 36.0527 66.1642 34.8223 68.7306 33.3281L73.3888 30.6387L73.4767 34.5586C73.5646 38.4785 73.5646 38.4961 74.0216 38.9356C74.2677 39.1816 74.7423 39.4277 75.0939 39.4805C75.6212 39.5684 75.8146 39.4981 76.3067 39.0586L76.9044 38.5313L76.9571 32.8359C76.9923 27.4922 76.9747 27.1231 76.6583 26.6309C76.4122 26.2266 72.756 24.0469 61.5587 17.5957L46.7755 9.0879L46.7228 5.06251L46.67 1.01954L46.09 0.509773C45.5099 7.62939e-06 45.0353 -0.105461 44.3673 0.175789ZM43.8224 19.8106C44.1739 20.1797 44.4728 20.3027 45.0001 20.3027C45.5275 20.3027 45.8263 20.1797 46.1954 19.8106C46.67 19.3359 46.67 19.3184 46.7579 16.2598L46.8458 13.1836L58.8868 20.1445C65.5138 23.959 71.1036 27.1934 71.3321 27.3164C71.7189 27.5274 71.4552 27.7031 67.0431 30.252C64.4591 31.7461 62.2443 32.9766 62.1388 33.0117C62.0157 33.0469 61.5939 32.625 61.172 32.0801C58.8868 29.1094 55.0548 26.4902 51.2403 25.2598C49.0431 24.5566 47.5665 24.3457 44.9122 24.3633C41.59 24.3809 39.1993 24.8906 36.1407 26.2617C33.7325 27.3516 30.4982 29.918 28.8282 32.0625C28.4239 32.6074 28.0196 33.0469 27.9318 33.0469C27.8439 33.0469 25.629 31.7988 23.0099 30.2871C18.5626 27.7031 18.2814 27.5274 18.6681 27.3164C18.8966 27.1934 24.4864 23.9766 31.1134 20.1445L43.1544 13.1836L43.2423 16.2598C43.3302 19.3184 43.3302 19.3359 43.8224 19.8106ZM47.8302 28.0371C57.2521 29.6895 63.5802 38.5488 61.963 47.8301C60.3107 57.252 51.4513 63.5801 42.17 61.9629C32.7482 60.3106 26.42 51.4512 28.0372 42.1699C29.6896 32.7481 38.5489 26.4199 47.8302 28.0371Z" fill="#282A36"/>
<path d="M33.5391 36.8262C32.9414 37.1602 32.6953 37.5996 32.6953 38.3203C32.6953 39.4805 33.4863 40.0781 35.0156 40.0781H35.9297L34.8398 41.1855C33.6094 42.4336 33.3281 43.084 33.6621 43.8926C34.0664 44.8418 34.4883 45 36.5976 45C37.6172 45 38.6894 45.0879 38.9707 45.1934C41.2207 46.0371 40.9394 49.3945 38.584 49.8516C37.7402 50.0098 37.2129 49.834 36.4922 49.2012C36.0176 48.7969 35.8418 48.4629 35.6836 47.6719C35.5605 47.127 35.3144 46.4941 35.1035 46.2832C34.3476 45.457 32.8887 45.6504 32.3613 46.6348C31.7637 47.7422 32.5723 50.3262 33.9258 51.6797C35.0684 52.8223 36.3516 53.332 38.0566 53.3496C39.2344 53.3496 39.6387 53.2617 40.5176 52.8574C42.75 51.8203 43.9805 49.8867 43.998 47.4434C44.0156 46.2656 43.9453 45.9492 43.4355 44.9297C42.7676 43.5762 41.6953 42.5566 40.3242 41.9941L39.375 41.5898L40.6055 40.3242C41.7129 39.1816 41.8359 38.9883 41.8359 38.3555C41.8359 37.8457 41.7129 37.4941 41.4141 37.1426L40.9922 36.6504L37.4941 36.6152C34.6641 36.5801 33.9258 36.6152 33.5391 36.8262Z" fill="#BC6434"/>
<path d="M47.0215 36.7207C46.8281 36.8086 46.5117 37.0547 46.3184 37.2656C45.9844 37.6348 45.9668 37.8984 45.9668 45.0176V52.3828L46.459 52.8574C46.8809 53.2793 47.0918 53.3496 48.2344 53.4023C51.9609 53.5957 54.9844 52.1016 56.6719 49.2187C59.1152 45.0703 57.4805 39.6387 53.1738 37.5117C52.5059 37.1777 51.4688 36.8262 50.8887 36.7383C49.623 36.5273 47.5137 36.5273 47.0215 36.7207ZM50.9238 40.3418C52.8398 40.9219 54.3164 42.9258 54.3164 45C54.3164 47.0742 52.8398 49.0781 50.9238 49.6582C49.2539 50.1504 49.3945 50.5898 49.3945 45C49.3945 39.4101 49.2539 39.8496 50.9238 40.3418Z" fill="#BC6434"/>
<path d="M74.3202 0.29882C73.1952 1.00195 73.2128 2.54882 74.3553 3.21679C74.7948 3.48046 75.5507 3.51562 80.6659 3.51562H86.4842V9.33398C86.4842 14.4492 86.5194 15.2051 86.7831 15.6445C87.4686 16.8223 89.0858 16.7871 89.7362 15.5742C89.9823 15.082 90.0174 14.2734 89.9647 8.0332L89.912 1.01952L89.3319 0.509758L88.7694 -7.62939e-06H81.7733C75.5858 0.0175705 74.7421 0.0351486 74.3202 0.29882Z" fill="#BC6434"/>
<path d="M1.14276 43.4004C0.0177553 43.875 -0.281073 45.334 0.580255 46.1778C1.63494 47.25 3.42791 46.5117 3.42791 45C3.42791 43.8399 2.16229 42.961 1.14276 43.4004Z" fill="#BC6434"/>
<path d="M7.34766 43.5235C6.73242 43.8399 6.50391 44.2793 6.50391 45.0879C6.50391 46.2305 7.7168 47.0215 8.80664 46.5821C9.49219 46.3008 9.84375 45.7735 9.84375 45.0352C9.84375 44.2617 9.59766 43.8399 8.96484 43.5059C8.33203 43.1719 7.96289 43.1895 7.34766 43.5235Z" fill="#BC6434"/>
<path d="M14.1506 43.4004C13.0256 43.875 12.7267 45.334 13.5881 46.1778C14.6428 47.25 16.4357 46.5117 16.4357 45C16.4357 43.8399 15.1701 42.961 14.1506 43.4004Z" fill="#BC6434"/>
<path d="M74.6193 43.4004C73.4943 43.875 73.1955 45.334 74.0568 46.1778C75.1115 47.25 76.9045 46.5117 76.9045 45C76.9045 43.8399 75.6388 42.961 74.6193 43.4004Z" fill="#BC6434"/>
<path d="M80.8242 43.5235C80.209 43.8399 79.9805 44.2793 79.9805 45.0879C79.9805 46.2305 81.1934 47.0215 82.2832 46.5821C82.9688 46.3008 83.3203 45.7735 83.3203 45.0352C83.3203 44.2617 83.0742 43.8399 82.4414 43.5059C81.8086 43.1719 81.4395 43.1895 80.8242 43.5235Z" fill="#BC6434"/>
<path d="M87.6271 43.4004C86.5021 43.875 86.2033 45.334 87.0646 46.1778C88.1193 47.25 89.9123 46.5117 89.9123 45C89.9123 43.8399 88.6467 42.961 87.6271 43.4004Z" fill="#BC6434"/>
<path d="M0.949219 73.6699C0.755859 73.7754 0.457031 74.0742 0.298828 74.3555C0.0351562 74.7949 0 75.6211 0 81.8086V88.7696L0.509766 89.3321L1.01953 89.9121L8.0332 89.9649C14.2734 90.0176 15.082 89.9824 15.5742 89.7364C16.7871 89.086 16.8223 87.4688 15.6445 86.7832C15.2051 86.5196 14.4492 86.4844 9.33398 86.4844H3.51562V80.666C3.51562 75.5508 3.48047 74.7949 3.2168 74.3555C2.75977 73.5645 1.79297 73.2656 0.949219 73.6699Z" fill="#BC6434"/>
<path d="M87.4336 73.6699C87.2403 73.7754 86.9414 74.0742 86.7832 74.3555C86.5196 74.7949 86.4844 75.5508 86.4844 80.666V86.4844H80.6661C74.3379 86.4844 74.1094 86.5195 73.67 87.4863C73.2832 88.3477 73.5469 89.2266 74.3555 89.7012C74.795 89.9648 75.6387 90 81.8086 90H88.7696L89.3321 89.4902L89.9121 88.9805L89.9649 81.9668C90.0176 75.7266 89.9825 74.918 89.7364 74.4258C89.2793 73.5645 88.3125 73.248 87.4336 73.6699Z" fill="#BC6434"/>
</g>
<defs>
<clipPath id="clip0_28_593">
<rect width="90" height="90" fill="white"/>
</clipPath>
</defs>
</svg>
