<svg width="90" height="90" viewBox="0 0 90 90" fill="none" xmlns="http://www.w3.org/2000/svg">
<path d="M42.8553 2.63672C40.2713 3.07617 38.1443 4.20117 36.2107 6.15234C34.7693 7.59375 34.5232 7.98046 28.4061 18.2812C22.7107 27.8437 22.0779 29.0039 22.0076 29.8125C21.9022 31.0781 22.4119 32.0098 23.66 32.8008C25.4002 33.9082 27.5975 34.9805 28.1424 34.9805C28.7928 34.9805 29.8475 34.5586 30.3572 34.0664C30.5857 33.8555 33.5037 29.0742 36.8611 23.4316C41.6248 15.416 43.1014 13.0781 43.5408 12.8144C44.4373 12.2519 45.2108 12.1992 46.1424 12.6562C46.9158 13.043 47.0565 13.2363 50.994 19.8281C53.2264 23.5723 55.0545 26.7012 55.0721 26.7891C55.0897 26.877 54.615 27.2285 54.035 27.5801C53.4373 27.9316 52.7693 28.3711 52.5584 28.5645C51.3807 29.6191 51.3983 31.9043 52.5936 32.9941C52.8221 33.2227 55.7752 34.7168 59.1678 36.334C66.1287 39.6562 66.533 39.7793 67.9217 38.9531C69.2928 38.1445 69.3455 37.9512 69.9783 30.1641C70.2772 26.4023 70.4705 23.0625 70.4002 22.7285C70.2772 22.0078 69.3631 20.9531 68.6072 20.6367C67.5877 20.1973 66.6736 20.3203 65.285 21.0937C64.5818 21.4805 63.9315 21.7969 63.8436 21.7969C63.7557 21.7969 61.7693 18.6152 59.449 14.7129C54.9842 7.22461 54.2811 6.24023 52.2596 4.79882C49.6404 2.93554 46.0369 2.10938 42.8553 2.63672ZM48.1815 5.66015C51.5037 6.87304 52.1717 7.6289 56.6893 15.2402C61.7518 23.7305 61.7693 23.7656 62.4373 24.1523C63.4041 24.7324 64.4412 24.627 65.9178 23.7656C67.2713 22.9922 67.6404 22.8867 67.7811 23.2559C67.8865 23.5371 66.867 36.2988 66.7088 36.5625C66.6561 36.6504 66.4979 36.7383 66.3748 36.7383C66.2518 36.7383 63.5096 35.4727 60.2752 33.9434C55.8983 31.8516 54.3865 31.043 54.3514 30.7969C54.3162 30.5508 54.6326 30.2695 55.6873 29.6543C56.8475 28.9863 57.1463 28.7051 57.4627 28.0723C57.9373 27.1055 57.9197 26.666 57.4275 25.6289C56.4608 23.5898 49.4295 12.0059 48.7264 11.3027C47.6717 10.2129 46.617 9.79101 44.9998 9.77343C43.4178 9.75586 42.3279 10.2129 41.2205 11.3379C40.7986 11.7773 38.1619 16.0488 34.5408 22.1309C31.2713 27.668 28.494 32.2383 28.3709 32.291C28.0545 32.3965 24.6092 30.375 24.6092 30.0762C24.6092 29.9531 27.3514 25.207 30.7264 19.5469C36.2107 10.2832 36.949 9.12304 38.0565 7.99804C39.3924 6.66211 40.8338 5.81836 42.6443 5.36132C44.1561 4.97461 46.6873 5.11523 48.1815 5.66015Z" fill="#282A36"/>
<path d="M43.2069 33.2051C42.3807 33.4687 37.3885 36.2637 36.7733 36.8086C35.2088 38.1797 34.7694 40.6758 35.7713 42.6269C36.4041 43.875 37.4237 44.7012 38.7772 45.1055L39.7264 45.3691V53.9297V62.4902L40.1483 63.3691C40.9569 65.1094 42.3807 66.0937 44.3143 66.2344C46.3709 66.375 48.1991 65.25 49.1131 63.2988C49.4647 62.543 49.4823 62.209 49.4823 57.6035V52.6992L49.0604 52.3652C48.5682 51.9785 47.8475 51.9258 47.3553 52.2773C47.0389 52.5058 47.0213 52.8398 46.9334 57.2519C46.8631 60.8027 46.7752 62.0859 46.5995 62.4551C45.9315 63.7558 44.0682 64.0019 42.9959 62.9473L42.451 62.4023L42.3631 52.8926L42.2752 43.3828L41.783 42.9609C41.3436 42.5918 41.1678 42.539 40.4647 42.6269C38.4608 42.8906 37.1424 40.8164 38.2323 39.1465C38.408 38.8828 39.6034 38.0918 41.0975 37.248C44.033 35.6133 44.7889 35.4199 45.7557 36.0176C46.8455 36.6855 46.9334 37.1601 46.9334 42.7851V47.7949L47.3905 48.1465C47.9178 48.5683 48.1463 48.6035 48.7616 48.3223C49.5526 47.9531 49.6053 47.5137 49.535 41.9765L49.4823 36.8262L48.9901 35.8242C48.1639 34.1543 46.7225 33.2051 44.8241 33.1172C44.1913 33.082 43.4705 33.1172 43.2069 33.2051Z" fill="#BC6434"/>
<path d="M19.1602 37.8632C16.8926 38.83 7.13671 43.6113 6.83789 43.875C6.31054 44.3496 5.92382 45.5976 6.01171 46.4941C6.13476 47.5664 6.78515 48.3574 8.26171 49.2187C8.94726 49.623 9.49218 49.9746 9.49218 50.0097C9.49218 50.0449 7.73437 53.0332 5.60742 56.6191C3.46289 60.2226 1.4414 63.7207 1.125 64.4062C-0.158207 67.1484 -0.31641 70.5058 0.685543 73.4062C1.38867 75.4628 2.14453 76.6757 3.77929 78.3281C4.93945 79.5058 5.48437 79.8925 6.85546 80.5605C9.91406 82.0546 9.01757 81.9843 23.3789 82.0546C32.2207 82.0898 36.3164 82.0546 36.7734 81.914C37.6172 81.6679 38.4785 80.9472 38.7773 80.2089C38.9531 79.8222 39.0234 78.8378 39.0234 77.0625C39.0234 74.1445 38.8652 73.5996 37.8281 72.8085L37.2129 72.3339L24.5391 72.246C12.2519 72.1582 11.8477 72.1406 11.2852 71.8066C10.459 71.3144 9.94921 70.4179 9.94921 69.4511C9.94921 68.7128 10.3008 68.0449 13.9746 61.875C16.1894 58.1484 18.0176 55.0722 18.0527 55.0371C18.0879 54.9843 18.7559 55.3007 19.5293 55.705C20.8301 56.4082 21.041 56.4609 21.9551 56.3906C23.168 56.3027 23.9414 55.8281 24.4336 54.8437C24.8906 53.9648 24.873 53.8593 24.2578 46.1777C23.8184 40.5351 23.6953 39.621 23.3789 39.0585C22.5352 37.5644 20.9004 37.1074 19.1602 37.8632ZM21.0762 40.4648C21.2168 40.7988 22.166 52.4355 22.1484 53.4726C22.1484 53.9648 21.5156 53.8593 20.3379 53.1386C19.5293 52.664 18.9844 52.4882 18.2812 52.4179C16.6289 52.2949 16.5762 52.3652 12.2695 59.5898C7.38281 67.7636 7.33007 67.8691 7.33007 69.416C7.33007 71.5781 8.38476 73.248 10.3359 74.2148L11.5137 74.7949L23.959 74.8476L36.4043 74.9003L36.3516 77.1328L36.2988 79.3652H23.6426C11.8477 79.3652 10.916 79.3476 9.93164 79.0488C6.62695 78.0293 4.18359 75.621 3.05859 72.246C2.83007 71.5605 2.72461 70.7519 2.72461 69.5214C2.72461 66.7441 2.93554 66.2519 7.48828 58.623C12.375 50.3964 12.1816 50.7656 12.0937 49.746C11.9707 48.6035 11.5488 48.0761 9.98437 47.1621C9.22851 46.7402 8.61328 46.2656 8.61328 46.125C8.61328 45.9843 8.82421 45.7382 9.10546 45.5976C10.125 45.0175 20.4961 40.1132 20.707 40.0956C20.8301 40.0781 20.9883 40.2539 21.0762 40.4648Z" fill="#282A36"/>
<path d="M73.2832 42.5918C72.2461 42.9785 69.3809 44.6836 68.7832 45.2636C68.1504 45.8965 67.7812 47.0215 67.957 47.9004C68.0098 48.2519 70.6641 52.8925 73.9336 58.3769C77.168 63.8086 79.875 68.5371 79.9805 68.8886C80.2793 69.9961 79.7871 71.1211 78.75 71.7715C78.1523 72.1582 78.0117 72.1582 70.207 72.2109L62.2793 72.2636L62.1738 70.6113C62.0508 68.4843 61.6289 67.6582 60.3105 66.9726C59.7129 66.6562 58.3594 66.6914 57.7266 67.0254C56.9355 67.4297 46.9336 74.3203 46.3359 74.8652C45.6855 75.4629 45.3516 76.2539 45.3516 77.2031C45.3516 78.7148 45.6504 78.9961 51.8555 83.25C55.002 85.4121 57.832 87.2754 58.166 87.3808C59.4492 87.8203 60.9961 87.1699 61.6992 85.9218C61.9629 85.4297 62.1035 84.8144 62.1738 83.6718L62.2793 82.0898H65.127C67.7461 82.0898 68.0098 82.0547 68.4492 81.7207C69.0293 81.2636 69.082 80.332 68.5547 79.8047C68.2207 79.4707 67.9746 79.4531 64.916 79.4531C61.207 79.4531 60.7148 79.5761 59.9941 80.666C59.6426 81.1758 59.5898 81.4922 59.5898 82.7929C59.5898 84.2871 59.3613 85.0429 58.9395 84.8847C58.8516 84.8496 56.3379 83.1621 53.3848 81.123C49.957 78.7851 48.0059 77.3261 47.9883 77.1328C47.9883 76.9394 49.834 75.5683 53.2969 73.1777C56.2148 71.1738 58.6934 69.4687 58.8164 69.3808C58.9395 69.3105 59.1504 69.3808 59.3086 69.539C59.5195 69.75 59.5898 70.1894 59.5898 71.3496C59.5898 73.0371 59.8535 73.6699 60.873 74.4258C61.3652 74.7949 61.5234 74.7949 69.9258 74.7949H78.4863L79.6641 74.2148C80.9824 73.5644 81.5977 72.9316 82.2305 71.5605C82.793 70.33 82.8281 68.6425 82.3184 67.5C82.125 67.0605 79.3828 62.3672 76.2188 57.0761C73.0723 51.7675 70.4883 47.373 70.4883 47.2851C70.4883 47.2148 71.332 46.6523 72.3516 46.0547C73.916 45.1406 74.25 45 74.4434 45.1933C74.584 45.334 77.3438 49.9043 80.5957 55.3711C87.2227 66.5332 87.2754 66.6386 87.2754 69.5215C87.2578 72.2988 86.3438 74.5136 84.375 76.4648C82.1777 78.6445 80.4375 79.2773 76.2891 79.4004C74.6895 79.4531 73.248 79.5761 73.0723 79.664C72.5977 79.9101 72.3691 80.666 72.5977 81.2285C72.9316 82.0195 73.5293 82.1425 76.6055 82.0371C79.8047 81.9316 80.8066 81.7031 83.0566 80.6133C89.0156 77.6953 91.6348 70.4004 88.875 64.4238C88.1367 62.8242 77.0801 44.1914 76.4824 43.541C75.6035 42.5742 74.3555 42.2051 73.2832 42.5918Z" fill="#282A36"/>
</svg>
